<svg xmlns="http://www.w3.org/2000/svg" width="979.998" height="131.002"><g data-name="gauge"><g fill="#11141d"><path d="M43.052 129.118l-27.291-.001a125.07 125.07 0 0121.19-61.665 126.319 126.319 0 0115.364-18.62A126.332 126.332 0 0170.934 33.47a125.075 125.075 0 0144.987-18.932 126.724 126.724 0 0125.357-2.556c8.537 0 17.068.86 25.356 2.557a125.077 125.077 0 0144.987 18.931 126.404 126.404 0 0118.621 15.364 126.32 126.32 0 0115.364 18.619 125.191 125.191 0 0118.934 44.987 126.641 126.641 0 012.258 16.677h-26.383a99.769 99.769 0 00-1.595-10.837 98.546 98.546 0 00-14.912-35.435 99.958 99.958 0 00-12.1-14.667 100.031 100.031 0 00-14.667-12.1 99.289 99.289 0 00-16.832-9.137 98.664 98.664 0 00-18.603-5.775 100.081 100.081 0 00-39.942 0 98.594 98.594 0 00-18.603 5.775 99.396 99.396 0 00-16.835 9.136 99.974 99.974 0 00-14.665 12.1 99.96 99.96 0 00-12.102 14.668 99.127 99.127 0 00-9.136 16.833 98.468 98.468 0 00-7.37 29.44z"/><path d="M42.597 128.618a98.97 98.97 0 017.365-29.135 99.628 99.628 0 019.182-16.92 100.458 100.458 0 0112.163-14.74 100.478 100.478 0 0114.74-12.161 99.898 99.898 0 0116.92-9.182 99.096 99.096 0 0118.696-5.805 100.583 100.583 0 0140.143 0 99.17 99.17 0 0118.698 5.805 99.793 99.793 0 0116.917 9.182 100.534 100.534 0 0114.74 12.161c4.508 4.51 8.6 9.47 12.162 14.74a99.047 99.047 0 0114.988 35.615c.698 3.424 1.222 6.93 1.56 10.439l25.39-.001a126.109 126.109 0 00-2.21-16.077 124.689 124.689 0 00-18.86-44.807 125.815 125.815 0 00-15.302-18.546 125.9 125.9 0 00-18.548-15.303 124.576 124.576 0 00-44.807-18.856 126.216 126.216 0 00-25.256-2.546c-8.503 0-17.001.857-25.257 2.547a124.578 124.578 0 00-44.807 18.856 125.83 125.83 0 00-18.546 15.303 125.812 125.812 0 00-15.303 18.545 124.57 124.57 0 00-21.068 60.885h26.3m.913 1H15.227a125.572 125.572 0 0121.31-62.445A126.814 126.814 0 0151.961 48.48a126.827 126.827 0 0118.693-15.424 125.577 125.577 0 0145.166-19.007 127.223 127.223 0 0125.458-2.567c8.57 0 17.135.864 25.457 2.567A125.578 125.578 0 01211.9 33.055a126.901 126.901 0 0118.695 15.424c5.715 5.71 10.904 12 15.424 18.693a125.69 125.69 0 0119.01 45.167 127.175 127.175 0 012.302 17.277h-27.374a99.28 99.28 0 00-1.628-11.237 98.044 98.044 0 00-14.836-35.255 99.453 99.453 0 00-12.04-14.594 99.53 99.53 0 00-14.593-12.04 98.788 98.788 0 00-16.747-9.09 98.167 98.167 0 00-18.508-5.746 99.567 99.567 0 00-19.872-2.001 99.58 99.58 0 00-19.87 2.001 98.093 98.093 0 00-18.508 5.747 98.899 98.899 0 00-16.75 9.09 99.474 99.474 0 00-14.592 12.04 99.454 99.454 0 00-12.041 14.593 98.624 98.624 0 00-9.09 16.748 97.966 97.966 0 00-7.373 29.745z" fill="#39405f"/></g><path d="M36.113 129.617h-12.75a118.882 118.882 0 012.179-16.54 117.464 117.464 0 0117.776-42.241 118.466 118.466 0 0151.977-42.8 117.533 117.533 0 0122.175-6.886 119.3 119.3 0 0147.617 0 117.519 117.519 0 0142.243 17.775 118.5 118.5 0 0142.8 51.977 117.551 117.551 0 016.882 22.175 118.772 118.772 0 012.179 16.538h-12.747a106.112 106.112 0 00-1.893-13.974A104.876 104.876 0 00228.69 77.95a105.728 105.728 0 00-46.379-38.193 105.009 105.009 0 00-19.788-6.142 106.438 106.438 0 00-42.489 0 104.814 104.814 0 00-37.693 15.86A105.726 105.726 0 0044.149 95.85a104.978 104.978 0 00-6.142 19.787 106.08 106.08 0 00-1.893 13.974z" fill="#6f4826"/><path fill="none" stroke="#39405f" d="M15.418 129.162H9.966"/><path data-name="tick-line" fill="none" stroke="#39405f" d="M141.278 11.481V6.029M271.682 129.162h-5.452"/><path data-name="tick" d="M275.498 131.002a1.5 1.5 0 010-3h11a1.5 1.5 0 010 3zm-274 0a1.5 1.5 0 010-3h5a1.5 1.5 0 010 3zm127-29a3.5 3.5 0 010-7h25a3.5 3.5 0 110 7zm7-99a1.5 1.5 0 010-3h11a1.5 1.5 0 010 3z" fill="#a4adcd"/></g><g data-name="gauge"><g data-name="gauge-frame" fill="#11141d"><path d="M389.052 129.118l-27.291-.001a125.07 125.07 0 0121.19-61.665 126.319 126.319 0 0115.364-18.62 126.332 126.332 0 0118.619-15.363 125.075 125.075 0 0144.987-18.932 126.724 126.724 0 0125.357-2.556c8.537 0 17.068.86 25.356 2.557a125.077 125.077 0 0144.987 18.931 126.404 126.404 0 0118.621 15.364 126.32 126.32 0 0115.364 18.619 125.191 125.191 0 0118.934 44.987 126.641 126.641 0 012.258 16.677h-26.383a99.769 99.769 0 00-1.595-10.837 98.546 98.546 0 00-14.912-35.435 99.958 99.958 0 00-12.1-14.667 100.031 100.031 0 00-14.667-12.1 99.289 99.289 0 00-16.832-9.137 98.664 98.664 0 00-18.603-5.775 100.081 100.081 0 00-39.942 0 98.594 98.594 0 00-18.603 5.775 99.396 99.396 0 00-16.835 9.136 99.974 99.974 0 00-14.665 12.1 99.96 99.96 0 00-12.102 14.668 99.127 99.127 0 00-9.136 16.833 98.468 98.468 0 00-7.37 29.44z"/><path d="M388.597 128.618a98.97 98.97 0 017.365-29.135 99.628 99.628 0 019.182-16.92 100.458 100.458 0 0112.163-14.74 100.478 100.478 0 0114.74-12.161 99.898 99.898 0 0116.92-9.182 99.096 99.096 0 0118.696-5.805 100.583 100.583 0 0140.143 0 99.17 99.17 0 0118.698 5.805 99.793 99.793 0 0116.917 9.182 100.534 100.534 0 0114.74 12.161c4.508 4.51 8.6 9.47 12.162 14.74a99.047 99.047 0 0114.988 35.615c.698 3.424 1.222 6.93 1.56 10.439l25.39-.001a126.109 126.109 0 00-2.21-16.077 124.689 124.689 0 00-18.86-44.807 125.815 125.815 0 00-15.302-18.546 125.9 125.9 0 00-18.548-15.303 124.576 124.576 0 00-44.807-18.856 126.216 126.216 0 00-25.256-2.546c-8.503 0-17.001.857-25.257 2.547a124.578 124.578 0 00-44.807 18.856 125.83 125.83 0 00-18.546 15.303 125.812 125.812 0 00-15.303 18.545 124.57 124.57 0 00-21.068 60.885h26.3m.913 1h-28.283a125.572 125.572 0 0121.31-62.445 126.814 126.814 0 0115.424-18.693 126.827 126.827 0 0118.693-15.424 125.577 125.577 0 0145.166-19.007 127.223 127.223 0 0125.458-2.567c8.57 0 17.135.864 25.457 2.567A125.578 125.578 0 01557.9 33.055a126.901 126.901 0 0118.695 15.424c5.715 5.71 10.904 12 15.424 18.693a125.69 125.69 0 0119.01 45.167 127.175 127.175 0 012.302 17.277h-27.374a99.28 99.28 0 00-1.628-11.237 98.044 98.044 0 00-14.836-35.255 99.453 99.453 0 00-12.04-14.594 99.53 99.53 0 00-14.593-12.04 98.788 98.788 0 00-16.747-9.09 98.167 98.167 0 00-18.508-5.746 99.567 99.567 0 00-19.872-2.001 99.58 99.58 0 00-19.87 2.001 98.093 98.093 0 00-18.508 5.747 98.899 98.899 0 00-16.75 9.09 99.474 99.474 0 00-14.592 12.04 99.454 99.454 0 00-12.041 14.593 98.624 98.624 0 00-9.09 16.748 97.966 97.966 0 00-7.373 29.745z" fill="#39405f"/></g><path data-name="gauge-fill" d="M382.113 129.617h-12.75a118.957 118.957 0 012.179-16.54 117.455 117.455 0 0117.776-42.241 118.456 118.456 0 0151.977-42.8 117.453 117.453 0 0122.176-6.886 119.026 119.026 0 0123.807-2.4v12.722h-.015a106.122 106.122 0 00-21.229 2.14 104.822 104.822 0 00-37.693 15.862 105.733 105.733 0 00-38.193 46.376 104.965 104.965 0 00-6.142 19.787 106.047 106.047 0 00-1.894 13.974z" fill="#147e67"/><g data-name="tick"><path data-name="tick-line" fill="none" stroke="#39405f" d="M361.418 129.162h-5.452M487.278 11.481V6.029M617.682 129.162h-5.452"/><path data-name="tick" d="M621.498 131.002a1.5 1.5 0 010-3h11a1.5 1.5 0 010 3zm-274 0a1.5 1.5 0 010-3h5a1.5 1.5 0 010 3zm127-29a3.5 3.5 0 110-7h25a3.5 3.5 0 110 7zm7-99a1.5 1.5 0 010-3h11a1.5 1.5 0 010 3z" fill="#a4adcd"/></g></g><g data-name="gauge"><path data-name="gauge-frame" d="M735.51 129.618h-28.285a126.919 126.919 0 012.3-17.278 126.27 126.27 0 0198.3-98.292 127.521 127.521 0 0150.914 0 125.626 125.626 0 0145.167 19.007 125.93 125.93 0 0155.431 96.561h-27.379a99.281 99.281 0 00-1.627-11.237 98.1 98.1 0 00-14.836-35.256 98.885 98.885 0 00-43.38-35.723 98.165 98.165 0 00-18.508-5.747 99.637 99.637 0 00-39.742 0 98.132 98.132 0 00-35.259 14.838 98.878 98.878 0 00-35.723 43.381 97.966 97.966 0 00-5.744 18.509 99.166 99.166 0 00-1.629 11.237z" fill="#11141d"/><path data-name="gauge-frame - Outline" d="M734.597 128.618a100.126 100.126 0 011.562-10.437 99.037 99.037 0 0114.985-35.617 99.865 99.865 0 0143.822-36.083 99.1 99.1 0 0118.7-5.805 100.639 100.639 0 0140.143 0 99.087 99.087 0 0135.616 14.986 99.879 99.879 0 0136.08 43.819 99.047 99.047 0 015.805 18.7 100.243 100.243 0 011.56 10.437h25.391a126.109 126.109 0 00-2.211-16.076 125.282 125.282 0 00-97.516-97.514 126.52 126.52 0 00-50.513 0 125.266 125.266 0 00-97.51 97.512 125.843 125.843 0 00-2.214 16.078h26.3m.913 1h-28.285a126.924 126.924 0 012.3-17.278 126.27 126.27 0 0198.3-98.292 127.52 127.52 0 0150.914 0 125.626 125.626 0 0145.167 19.007 125.93 125.93 0 0155.431 96.561h-27.379a99.281 99.281 0 00-1.627-11.237 98.1 98.1 0 00-14.836-35.256 98.885 98.885 0 00-43.38-35.723 98.167 98.167 0 00-18.508-5.746 99.639 99.639 0 00-39.742 0 98.132 98.132 0 00-35.259 14.837 98.879 98.879 0 00-35.723 43.381 97.966 97.966 0 00-5.744 18.509 99.167 99.167 0 00-1.629 11.237z" fill="#39405f"/><path data-name="gauge-fill" d="M728.113 129.617h-12.75a118.957 118.957 0 012.179-16.54 117.455 117.455 0 0117.776-42.241 118.456 118.456 0 0151.977-42.8 117.453 117.453 0 0122.176-6.886 119.026 119.026 0 0123.807-2.4v12.722h-.015a106.122 106.122 0 00-21.229 2.14 104.822 104.822 0 00-37.693 15.862 105.733 105.733 0 00-38.193 46.376 104.965 104.965 0 00-6.142 19.787 106.047 106.047 0 00-1.894 13.974z" fill="#979a49"/><g data-name="tick"><path data-name="tick-line" fill="none" stroke="#39405f" d="M707.418 129.162h-5.452M833.278 11.481V6.029M963.682 129.162h-5.452"/><path data-name="tick" d="M967.498 131.002a1.5 1.5 0 010-3h11a1.5 1.5 0 010 3zm-274 0a1.5 1.5 0 110-3h5a1.5 1.5 0 010 3zm127-29a3.5 3.5 0 110-7h25a3.5 3.5 0 010 7zm7-99a1.5 1.5 0 010-3h11a1.5 1.5 0 010 3z" fill="#a4adcd"/></g></g></svg>