<svg xmlns="http://www.w3.org/2000/svg" width="168.227" height="124.77" viewBox="0 0 168.227 124.77">
  <g id="graph" transform="translate(12.453 -0.453)">
    <rect id="color" width="14" height="3" rx="1.5" transform="translate(-0.453 122.223)" fill="#542d1f"/>
    <rect id="legend" width="61" height="3" rx="1.5" transform="translate(45.546 122.223)" fill="#a4adcd"/>
    <g id="x-y-lines" transform="translate(-0.001 0.453)">
      <line id="l" x2="153.047" transform="translate(0 28.5)" fill="none" stroke="#384161" stroke-width="1"/>
      <line id="l-2" data-name="l" y2="99.8" transform="translate(0.001)" fill="none" stroke="#384161" stroke-width="1"/>
      <line id="l-3" data-name="l" x2="153.047" transform="translate(0 52.501)" fill="none" stroke="#384161" stroke-width="1"/>
      <line id="l-4" data-name="l" x2="153.047" transform="translate(0 99.5)" fill="none" stroke="#384161" stroke-width="1"/>
      <line id="l-5" data-name="l" y2="99.8" transform="translate(76.452)" fill="none" stroke="#384161" stroke-width="1"/>
      <line id="l-6" data-name="l" y2="99.8" transform="translate(152.902)" fill="none" stroke="#384161" stroke-width="1"/>
      <line id="l-7" data-name="l" x2="153.047" transform="translate(0 76.5)" fill="none" stroke="#384161" stroke-width="1"/>
      <line id="l-8" data-name="l" x2="153.047" transform="translate(0 5.5)" fill="none" stroke="#384161" stroke-width="1"/>
    </g>
    <g id="ticks">
      <rect id="tick" width="8" height="3" rx="1.5" transform="translate(-12.453 51.879)" fill="#a4adcd"/>
      <rect id="tick-2" data-name="tick" width="8" height="3" rx="1.5" transform="translate(-12.453 28.379)" fill="#a4adcd"/>
      <rect id="tick-3" data-name="tick" width="8" height="3" rx="1.5" transform="translate(-12.453 4.879)" fill="#a4adcd"/>
      <rect id="tick-4" data-name="tick" width="6" height="3" rx="1.5" transform="translate(-3 105.379)" fill="#a4adcd"/>
      <rect id="tick-5" data-name="tick" width="6" height="3" rx="1.5" transform="translate(73.047 105.379)" fill="#a4adcd"/>
      <rect id="tick-6" data-name="tick" width="6" height="3" rx="1.5" transform="translate(149.773 105.379)" fill="#a4adcd"/>
      <rect id="tick-7" data-name="tick" width="6" height="3" rx="1.5" transform="translate(-10 98.379)" fill="#a4adcd"/>
      <rect id="tick-8" data-name="tick" width="8" height="3" rx="1.5" transform="translate(-12.453 74.879)" fill="#a4adcd"/>
    </g>
    <g id="colors">
      <rect id="color-2" data-name="color" width="14" height="3" rx="1.5" transform="translate(17.547 122.223)" fill="#6d316b"/>
    </g>
    <path id="line" d="M0,13.273H153.047" transform="translate(0 60.18)" fill="none" stroke="#6d316b" stroke-width="2"/>
    <path id="line-2" data-name="line" d="M0,13.273H66.523L76.2-80.8l9.615,94.07h67.233" transform="translate(0 87.18)" fill="none" stroke="#553e0d" stroke-width="2"/>
  </g>
</svg>
