<svg xmlns="http://www.w3.org/2000/svg" width="392" height="123.5" viewBox="0 0 392 123.5">
  <g id="graph" transform="translate(0 1.344)">
    <g id="x-y-lines" transform="translate(12 14.615)">
      <line id="l" x2="380" transform="translate(0 40.291)" fill="none" stroke="#384161" stroke-width="1"/>
      <line id="l-2" data-name="l" x2="380" transform="translate(0 95.291)" fill="none" stroke="#384161" stroke-width="1"/>
      <line id="l-3" data-name="l" x2="380" transform="translate(0 -14.709)" fill="none" stroke="#384161" stroke-width="1"/>
    </g>
    <g id="ticks" transform="translate(0 20.656)">
      <rect id="tick" width="8" height="3" rx="1.5" transform="translate(0 33)" fill="#a4adcd"/>
      <rect id="tick-2" data-name="tick" width="8" height="3" rx="1.5" transform="translate(0 88)" fill="#a4adcd"/>
      <rect id="tick-3" data-name="tick" width="8" height="3" rx="1.5" transform="translate(0 -22)" fill="#a4adcd"/>
      <rect id="tick-4" data-name="tick" width="52" height="3" rx="1.5" transform="translate(98.453 98.5)" fill="#a4adcd"/>
      <rect id="color" width="14" height="3" rx="1.5" transform="translate(21 98.25)" fill="#147e67"/>
      <rect id="color-2" data-name="color" width="14" height="3" rx="1.5" transform="translate(39 98.25)" fill="#cc4d50"/>
      <rect id="tick-5" data-name="tick" width="36" height="3" rx="1.5" transform="translate(270.453 98.5)" fill="#a4adcd"/>
    </g>
    <g id="bars">
      <rect id="bar" width="118" height="55" transform="translate(65 54.941)" fill="#147e67"/>
      <rect id="bar-2" data-name="bar" width="118" height="109" transform="translate(226 0.941)" fill="#cc4d50"/>
    </g>
  </g>
</svg>
