<svg xmlns="http://www.w3.org/2000/svg" width="45.004" height="98" viewBox="0 0 45.004 98">
    <defs>
        <style>
            .cls-1{fill:#a4adcd}
        </style>
    </defs>
    <g id="number" transform="translate(-706.998 -205)">
        <rect id="tic" class="cls-1" width="40" height="6" rx="3" transform="translate(709 205)"/>
        <path id="number-2" data-name="number" class="cls-1" d="M21947 12966c0-7.908 5.168-14.743 12.664-17.987a16.131 16.131 0 0 1-7.664-13.511c0-9.112 8.059-16.5 18-16.5s18 7.391 18 16.5a16.19 16.19 0 0 1-8.078 13.772c7.18 3.34 12.08 10.024 12.08 17.726 0 11.05-10.078 20-22.5 20s-22.502-8.952-22.502-20zm6 0c0 7.722 7.406 14 16.5 14s16.5-6.281 16.5-14-7.4-14-16.5-14-16.5 6.282-16.5 14zm5-31.5c0 5.79 5.387 10.5 12 10.5s12-4.708 12-10.5-5.387-10.5-12-10.5-12 4.71-12 10.5z" transform="translate(-21240 -12683)"/>
    </g>
</svg>
