<svg xmlns="http://www.w3.org/2000/svg" width="1220" height="930" viewBox="0 0 1220 930">
  <defs>
    <style>
      .cls-1 {
        fill: #0d0e15;
      }

      .cls-2, .cls-4 {
        fill: #a4adcd;
      }

      .cls-2 {
        font-size: 14px;
        font-family: Heebo-Regular, Heebo;
      }

      .cls-3 {
        fill: #af0bae;
      }

      .cls-11, .cls-12, .cls-15, .cls-16, .cls-19, .cls-20, .cls-22, .cls-5, .cls-7 {
        fill: none;
      }

      .cls-5, .cls-6 {
        stroke: #384161;
      }

      .cls-6 {
        fill: #1a1e2c;
      }

      .cls-7 {
        stroke: rgba(56,65,97,0.3);
      }

      .cls-8 {
        fill: #aa1c6c;
      }

      .cls-9 {
        fill: #9467bd;
      }

      .cls-10 {
        fill: #64755c;
      }

      .cls-11 {
        stroke: #64755c;
      }

      .cls-11, .cls-12, .cls-15, .cls-16, .cls-19, .cls-20 {
        stroke-width: 2px;
      }

      .cls-12 {
        stroke: #9467bd;
      }

      .cls-13 {
        fill: #785307;
      }

      .cls-14 {
        fill: #3a2c43;
      }

      .cls-15 {
        stroke: #3a2c43;
      }

      .cls-16 {
        stroke: #785307;
      }

      .cls-17 {
        fill: #23f8fd;
      }

      .cls-18 {
        fill: #e02a20;
      }

      .cls-19 {
        stroke: #23f8fd;
      }

      .cls-20 {
        stroke: #e02a20;
      }

      .cls-21 {
        stroke: none;
      }
    </style>
  </defs>
  <g id="app-hpo-preview" transform="translate(-436 -96)">
    <g id="widget" transform="translate(424 84)">
      <g id="widget-content" transform="translate(12 12)">
        <rect id="widget-2" data-name="widget" class="cls-1" width="604" height="459" rx="4"/>
        <text id="widget-title" class="cls-2" transform="translate(16 31)"><tspan x="0" y="0">Optimization Objective</tspan></text>
      </g>
      <g id="graph" transform="translate(216.453 186.662)">
        <rect id="color" class="cls-3" width="14" height="3" rx="1.5" transform="translate(-0.453 109.223)"/>
        <rect id="legend" class="cls-4" width="61" height="3" rx="1.5" transform="translate(66.546 -24.777)"/>
        <g id="x-y-lines" transform="translate(-0.001 0.453)">
          <line id="l" class="cls-5" y2="100" transform="translate(124.048 -10.115)"/>
          <line id="l-2" data-name="l" class="cls-5" y2="100" transform="translate(86.047 -10.115)"/>
          <line id="l-3" data-name="l" class="cls-5" y2="100" transform="translate(48.048 -10.115)"/>
          <line id="l-4" data-name="l" class="cls-5" x2="208" transform="translate(-0.452 18.885)"/>
          <line id="l-5" data-name="l" class="cls-5" y2="100" transform="translate(162.048 -10.115)"/>
          <line id="l-6" data-name="l" class="cls-5" y2="99.8" transform="translate(200.048 -10)"/>
          <line id="l-7" data-name="l" class="cls-5" y2="100" transform="translate(10.048 -10)"/>
          <line id="l-8" data-name="l" class="cls-5" y2="100" transform="translate(200.048 -10.115)"/>
          <line id="l-9" data-name="l" class="cls-5" x2="208" transform="translate(-0.452 -3.115)"/>
          <line id="l-10" data-name="l" class="cls-5" x2="208" transform="translate(-0.452 40.885)"/>
          <line id="l-11" data-name="l" class="cls-5" x2="208" transform="translate(-0.452 62.885)"/>
          <line id="l-12" data-name="l" class="cls-5" x2="208" transform="translate(-0.452 84.885)"/>
        </g>
        <g id="ticks">
          <rect id="tick" class="cls-4" width="8" height="3" rx="1.5" transform="translate(-12.453 61.879)"/>
          <rect id="tick-2" data-name="tick" class="cls-4" width="8" height="3" rx="1.5" transform="translate(-12.453 39.879)"/>
          <rect id="tick-3" data-name="tick" class="cls-4" width="8" height="3" rx="1.5" transform="translate(-12.453 17.879)"/>
          <rect id="tick-4" data-name="tick" class="cls-4" width="6" height="3" rx="1.5" transform="translate(7 94.379)"/>
          <rect id="tick-5" data-name="tick" class="cls-4" width="6" height="3" rx="1.5" transform="translate(45.047 94.379)"/>
          <rect id="tick-6" data-name="tick" class="cls-4" width="6" height="3" rx="1.5" transform="translate(83.094 94.379)"/>
          <rect id="tick-7" data-name="tick" class="cls-4" width="8" height="3" rx="1.5" transform="translate(-12.453 83.879)"/>
          <rect id="tick-8" data-name="tick" class="cls-4" width="6" height="3" rx="1.5" transform="translate(121.094 94.379)"/>
          <rect id="tick-9" data-name="tick" class="cls-4" width="6" height="3" rx="1.5" transform="translate(159.094 94.379)"/>
          <rect id="tick-10" data-name="tick" class="cls-4" width="6" height="3" rx="1.5" transform="translate(197.094 94.379)"/>
          <rect id="tick-11" data-name="tick" class="cls-4" width="8" height="3" rx="1.5" transform="translate(-12.453 -4.121)"/>
        </g>
        <g id="dots" transform="translate(15.5 12.93)">
          <circle id="dot" class="cls-3" cx="2" cy="2" r="2" transform="translate(106.547 62.408)"/>
          <circle id="dot-2" data-name="dot" class="cls-3" cx="2" cy="2" r="2" transform="translate(-7.453 -17.592)"/>
          <circle id="dot-3" data-name="dot" class="cls-3" cx="2" cy="2" r="2" transform="translate(30.547 16.408)"/>
          <circle id="dot-4" data-name="dot" class="cls-3" cx="2" cy="2" r="2" transform="translate(144.047 -10.477)"/>
          <circle id="dot-5" data-name="dot" class="cls-3" cx="2" cy="2" r="2" transform="translate(183.047 13.523)"/>
        </g>
      </g>
    </g>
    <g id="widget-3" data-name="widget" transform="translate(1040 84)">
      <g id="widget-content-2" data-name="widget-content" transform="translate(12 12)">
        <rect id="widget-4" data-name="widget" class="cls-1" width="604" height="459" rx="4"/>
        <g id="table" transform="translate(1 71)">
          <g id="table-2" data-name="table" class="cls-5" transform="translate(111 121)">
            <rect class="cls-21" width="381" height="76"/>
            <rect class="cls-22" x="0.5" y="0.5" width="380" height="75"/>
          </g>
          <g id="row" class="cls-6" transform="translate(111 121)">
            <rect class="cls-21" width="381" height="16"/>
            <rect class="cls-22" x="0.5" y="0.5" width="380" height="15"/>
          </g>
          <g id="row-2" data-name="row" class="cls-5" transform="translate(111 136)">
            <rect class="cls-21" width="381" height="16"/>
            <rect class="cls-22" x="0.5" y="0.5" width="380" height="15"/>
          </g>
          <g id="row-3" data-name="row" class="cls-5" transform="translate(111 151)">
            <rect class="cls-21" width="381" height="16"/>
            <rect class="cls-22" x="0.5" y="0.5" width="380" height="15"/>
          </g>
          <g id="row-4" data-name="row" class="cls-5" transform="translate(111 166)">
            <rect class="cls-21" width="381" height="16"/>
            <rect class="cls-22" x="0.5" y="0.5" width="380" height="15"/>
          </g>
          <g id="row-5" data-name="row" class="cls-5" transform="translate(111 181)">
            <rect class="cls-21" width="381" height="16"/>
            <rect class="cls-22" x="0.5" y="0.5" width="380" height="15"/>
          </g>
          <line id="divider" class="cls-7" y2="74.359" transform="translate(204.5 122.141)"/>
          <line id="divider-2" data-name="divider" class="cls-7" y2="74.359" transform="translate(301.501 122.141)"/>
          <line id="divider-3" data-name="divider" class="cls-7" y2="74.359" transform="translate(398.5 122.141)"/>
          <path id="text" class="cls-4" d="M17681.5,20456a1.5,1.5,0,0,1,0-3h12a1.5,1.5,0,1,1,0,3Zm-97,0a1.5,1.5,0,1,1,0-3h17a1.5,1.5,0,1,1,0,3Zm-97,0a1.5,1.5,0,1,1,0-3h23a1.5,1.5,0,0,1,0,3Zm-94,0a1.5,1.5,0,0,1,0-3h29a1.5,1.5,0,1,1,0,3Zm288-15a1.5,1.5,0,0,1,0-3h41a1.5,1.5,0,1,1,0,3Zm-97,0a1.5,1.5,0,1,1,0-3h70a1.5,1.5,0,0,1,0,3Zm-97,0a1.5,1.5,0,1,1,0-3h10a1.5,1.5,0,1,1,0,3Zm-94,0a1.5,1.5,0,0,1,0-3h41a1.5,1.5,0,1,1,0,3Zm288-15a1.5,1.5,0,0,1,0-3h24a1.5,1.5,0,1,1,0,3Zm-97,0a1.5,1.5,0,1,1,0-3h7a1.5,1.5,0,0,1,0,3Zm-97,0a1.5,1.5,0,1,1,0-3h18a1.5,1.5,0,1,1,0,3Zm-94,0a1.5,1.5,0,0,1,0-3h19a1.5,1.5,0,1,1,0,3Zm288-15a1.5,1.5,0,0,1,0-3h12a1.5,1.5,0,1,1,0,3Zm-97,0a1.5,1.5,0,1,1,0-3h39a1.5,1.5,0,1,1,0,3Zm-97,0a1.5,1.5,0,1,1,0-3h8a1.5,1.5,0,1,1,0,3Zm-94,0a1.5,1.5,0,0,1,0-3h58a1.5,1.5,0,0,1,0,3Zm288-15a1.5,1.5,0,0,1,0-3h46a1.5,1.5,0,0,1,0,3Zm-97,0a1.5,1.5,0,1,1,0-3h27a1.5,1.5,0,0,1,0,3Zm-97,0a1.5,1.5,0,0,1,0-3h50a1.5,1.5,0,1,1,0,3Zm-94,0a1.5,1.5,0,0,1,0-3h33a1.5,1.5,0,0,1,0,3Z" transform="translate(-17275 -20265)"/>
        </g>
        <text id="widget-title-2" data-name="widget-title" class="cls-2" transform="translate(16 31)"><tspan x="0" y="0">Summary</tspan></text>
      </g>
    </g>
    <g id="widget-5" data-name="widget" transform="translate(424 555)">
      <g id="widget-content-3" data-name="widget-content" transform="translate(12 12)">
        <rect id="widget-6" data-name="widget" class="cls-1" width="398" height="459" rx="4"/>
        <g id="graph-2" data-name="graph" transform="translate(127.453 160.547)">
          <rect id="color-2" data-name="color" class="cls-8" width="14" height="3" rx="1.5" transform="translate(-0.453 122.223)"/>
          <rect id="legend-2" data-name="legend" class="cls-4" width="61" height="3" rx="1.5" transform="translate(45.546 122.223)"/>
          <g id="x-y-lines-2" data-name="x-y-lines" transform="translate(-0.001 0.453)">
            <line id="l-13" data-name="l" class="cls-5" y2="110" transform="translate(104.548 -4)"/>
            <line id="l-14" data-name="l" class="cls-5" y2="110" transform="translate(51.548 -4)"/>
            <line id="l-15" data-name="l" class="cls-5" x2="166" transform="translate(0.048 75.499)"/>
            <line id="l-16" data-name="l" class="cls-5" x2="166" transform="translate(0.048 51.5)"/>
            <line id="l-17" data-name="l" class="cls-5" x2="166" transform="translate(0.048 27.501)"/>
            <line id="l-18" data-name="l" class="cls-5" x2="166" transform="translate(0.048 99.5)"/>
            <line id="l-19" data-name="l" class="cls-5" y2="110" transform="translate(157.548 -4)"/>
            <line id="l-20" data-name="l" class="cls-5" x2="166" transform="translate(0.048 4.5)"/>
          </g>
          <g id="ticks-2" data-name="ticks">
            <rect id="tick-12" data-name="tick" class="cls-4" width="8" height="3" rx="1.5" transform="translate(-12.453 49.879)"/>
            <rect id="tick-13" data-name="tick" class="cls-4" width="8" height="3" rx="1.5" transform="translate(-12.453 26.453)"/>
            <rect id="tick-14" data-name="tick" class="cls-4" width="6" height="3" rx="1.5" transform="translate(49.047 109.379)"/>
            <rect id="tick-15" data-name="tick" class="cls-4" width="6" height="3" rx="1.5" transform="translate(101.773 109.379)"/>
            <rect id="tick-16" data-name="tick" class="cls-4" width="6" height="3" rx="1.5" transform="translate(-10 98.379)"/>
            <rect id="tick-17" data-name="tick" class="cls-4" width="8" height="3" rx="1.5" transform="translate(-12.453 74.879)"/>
            <rect id="tick-18" data-name="tick" class="cls-4" width="6" height="3" rx="1.5" transform="translate(154.5 109.379)"/>
            <rect id="tick-19" data-name="tick" class="cls-4" width="8" height="3" rx="1.5" transform="translate(-12.453 3.453)"/>
          </g>
          <g id="colors">
            <rect id="color-3" data-name="color" class="cls-9" width="14" height="3" rx="1.5" transform="translate(-0.453 128.223)"/>
            <rect id="color-4" data-name="color" class="cls-10" width="14" height="3" rx="1.5" transform="translate(-0.453 134.223)"/>
          </g>
          <path id="line" class="cls-11" d="M-.453,4.57,12.5,27.684H33.9L46.222,52.324h9.53L65.844,76.689h48.188l10.432,23.281h31.628"/>
          <g id="dots-2" data-name="dots" transform="translate(0 2)">
            <path id="line-2" data-name="line" class="cls-12" d="M0,13.273H153.047" transform="translate(0 -10.82)"/>
            <g id="dots-3" data-name="dots" transform="translate(6.5 -62.07)">
              <circle id="dot-6" data-name="dot" class="cls-9" cx="2" cy="2" r="2" transform="translate(-7.953 62.523)"/>
              <circle id="dot-7" data-name="dot" class="cls-9" cx="2" cy="2" r="2" transform="translate(2.047 62.523)"/>
              <circle id="dot-8" data-name="dot" class="cls-9" cx="2" cy="2" r="2" transform="translate(13.047 62.523)"/>
              <circle id="dot-9" data-name="dot" class="cls-9" cx="2" cy="2" r="2" transform="translate(24.047 62.523)"/>
              <circle id="dot-10" data-name="dot" class="cls-9" cx="2" cy="2" r="2" transform="translate(102.047 62.523)"/>
              <circle id="dot-11" data-name="dot" class="cls-9" cx="2" cy="2" r="2" transform="translate(70.047 62.523)"/>
              <circle id="dot-12" data-name="dot" class="cls-9" cx="2" cy="2" r="2" transform="translate(84.047 62.523)"/>
              <circle id="dot-13" data-name="dot" class="cls-9" cx="2" cy="2" r="2" transform="translate(52.047 62.523)"/>
              <circle id="dot-14" data-name="dot" class="cls-9" cx="2" cy="2" r="2" transform="translate(122.047 62.523)"/>
              <circle id="dot-15" data-name="dot" class="cls-9" cx="2" cy="2" r="2" transform="translate(144.047 62.523)"/>
            </g>
            <circle id="dot-16" data-name="dot" class="cls-10" cx="2" cy="2" r="2" transform="translate(10.547 23.453)"/>
            <circle id="dot-17" data-name="dot" class="cls-10" cx="2" cy="2" r="2" transform="translate(20.547 23.453)"/>
            <circle id="dot-18" data-name="dot" class="cls-10" cx="2" cy="2" r="2" transform="translate(31.547 23.453)"/>
            <circle id="dot-19" data-name="dot" class="cls-10" cx="2" cy="2" r="2" transform="translate(44.547 48.453)"/>
            <circle id="dot-20" data-name="dot" class="cls-10" cx="2" cy="2" r="2" transform="translate(53.547 48.453)"/>
            <circle id="dot-21" data-name="dot" class="cls-10" cx="2" cy="2" r="2" transform="translate(63.547 72.453)"/>
            <circle id="dot-22" data-name="dot" class="cls-10" cx="2" cy="2" r="2" transform="translate(73.547 72.453)"/>
            <circle id="dot-23" data-name="dot" class="cls-10" cx="2" cy="2" r="2" transform="translate(83.547 72.453)"/>
            <circle id="dot-24" data-name="dot" class="cls-10" cx="2" cy="2" r="2" transform="translate(93.547 72.453)"/>
            <circle id="dot-25" data-name="dot" class="cls-10" cx="2" cy="2" r="2" transform="translate(103.547 72.453)"/>
            <circle id="dot-26" data-name="dot" class="cls-10" cx="2" cy="2" r="2" transform="translate(112.547 72.453)"/>
            <circle id="dot-27" data-name="dot" class="cls-10" cx="2" cy="2" r="2" transform="translate(122.547 95.953)"/>
            <circle id="dot-28" data-name="dot" class="cls-10" cx="2" cy="2" r="2" transform="translate(132.547 95.953)"/>
            <circle id="dot-29" data-name="dot" class="cls-10" cx="2" cy="2" r="2" transform="translate(142.547 95.953)"/>
            <circle id="dot-30" data-name="dot" class="cls-10" cx="2" cy="2" r="2" transform="translate(152.547 95.953)"/>
          </g>
        </g>
        <text id="widget-title-3" data-name="widget-title" class="cls-2" transform="translate(16 31)"><tspan x="0" y="0">Budget</tspan></text>
      </g>
    </g>
    <g id="widget-7" data-name="widget" transform="translate(834 555)">
      <g id="widget-content-4" data-name="widget-content" transform="translate(12 12)">
        <rect id="widget-8" data-name="widget" class="cls-1" width="398" height="459" rx="4"/>
        <g id="graph-3" data-name="graph" transform="translate(122.453 160.547)">
          <rect id="color-5" data-name="color" class="cls-13" width="14" height="3" rx="1.5" transform="translate(-0.453 122.223)"/>
          <rect id="legend-3" data-name="legend" class="cls-4" width="61" height="3" rx="1.5" transform="translate(45.546 122.223)"/>
          <g id="x-y-lines-3" data-name="x-y-lines" transform="translate(-0.001 0.453)">
            <line id="l-21" data-name="l" class="cls-5" y2="110" transform="translate(104.548 -4)"/>
            <line id="l-22" data-name="l" class="cls-5" y2="110" transform="translate(51.548 -4)"/>
            <line id="l-23" data-name="l" class="cls-5" x2="166" transform="translate(0.048 75.499)"/>
            <line id="l-24" data-name="l" class="cls-5" x2="166" transform="translate(0.048 51.5)"/>
            <line id="l-25" data-name="l" class="cls-5" x2="166" transform="translate(0.048 27.501)"/>
            <line id="l-26" data-name="l" class="cls-5" x2="166" transform="translate(0.048 99.5)"/>
            <line id="l-27" data-name="l" class="cls-5" y2="110" transform="translate(157.548 -4)"/>
            <line id="l-28" data-name="l" class="cls-5" x2="166" transform="translate(0.048 4.5)"/>
          </g>
          <g id="ticks-3" data-name="ticks">
            <rect id="tick-20" data-name="tick" class="cls-4" width="8" height="3" rx="1.5" transform="translate(-12.453 49.879)"/>
            <rect id="tick-21" data-name="tick" class="cls-4" width="8" height="3" rx="1.5" transform="translate(-12.453 26.453)"/>
            <rect id="tick-22" data-name="tick" class="cls-4" width="6" height="3" rx="1.5" transform="translate(49.047 109.379)"/>
            <rect id="tick-23" data-name="tick" class="cls-4" width="6" height="3" rx="1.5" transform="translate(101.773 109.379)"/>
            <rect id="tick-24" data-name="tick" class="cls-4" width="6" height="3" rx="1.5" transform="translate(-10 98.379)"/>
            <rect id="tick-25" data-name="tick" class="cls-4" width="8" height="3" rx="1.5" transform="translate(-12.453 74.879)"/>
            <rect id="tick-26" data-name="tick" class="cls-4" width="6" height="3" rx="1.5" transform="translate(154.5 109.379)"/>
            <rect id="tick-27" data-name="tick" class="cls-4" width="8" height="3" rx="1.5" transform="translate(-12.453 3.453)"/>
          </g>
          <g id="colors-2" data-name="colors">
            <rect id="color-6" data-name="color" class="cls-14" width="14" height="3" rx="1.5" transform="translate(-0.453 128.223)"/>
          </g>
          <g id="dots-4" data-name="dots">
            <circle id="dot-31" data-name="dot" class="cls-14" cx="2" cy="2" r="2" transform="translate(-2.453 98.453)"/>
            <circle id="dot-32" data-name="dot" class="cls-14" cx="2" cy="2" r="2" transform="translate(28.547 3.453)"/>
            <circle id="dot-33" data-name="dot" class="cls-14" cx="2" cy="2" r="2" transform="translate(58.547 3.453)"/>
            <circle id="dot-34" data-name="dot" class="cls-14" cx="2" cy="2" r="2" transform="translate(79.547 3.453)"/>
            <circle id="dot-35" data-name="dot" class="cls-14" cx="2" cy="2" r="2" transform="translate(109.547 3.453)"/>
            <circle id="dot-36" data-name="dot" class="cls-14" cx="2" cy="2" r="2" transform="translate(129.547 3.453)"/>
            <circle id="dot-37" data-name="dot" class="cls-13" cx="2" cy="2" r="2" transform="translate(133.547 3.453)"/>
            <circle id="dot-38" data-name="dot" class="cls-13" cx="2" cy="2" r="2" transform="translate(155.547 3.453)"/>
            <circle id="dot-39" data-name="dot" class="cls-14" cx="2" cy="2" r="2" transform="translate(154.547 97.453)"/>
          </g>
          <path id="line-3" data-name="line" class="cls-15" d="M-.453,100.568,31.291,5.135H131.669l25.338,95.434"/>
          <path id="line-4" data-name="line" class="cls-16" d="M133.979,5.135h23.84"/>
        </g>
        <text id="widget-title-4" data-name="widget-title" class="cls-2" transform="translate(16 31)"><tspan x="0" y="0">Resources</tspan></text>
      </g>
    </g>
    <g id="widget-9" data-name="widget" transform="translate(1243.438 555)">
      <g id="widget-content-5" data-name="widget-content" transform="translate(12.563 12)">
        <rect id="widget-10" data-name="widget" class="cls-1" width="400" height="459" rx="4"/>
        <g id="graph-4" data-name="graph" transform="translate(123.453 160.547)">
          <rect id="color-7" data-name="color" class="cls-17" width="14" height="3" rx="1.5" transform="translate(-0.453 122.223)"/>
          <rect id="legend-4" data-name="legend" class="cls-4" width="61" height="3" rx="1.5" transform="translate(45.546 122.223)"/>
          <g id="x-y-lines-4" data-name="x-y-lines" transform="translate(-0.001 0.453)">
            <line id="l-29" data-name="l" class="cls-5" y2="110" transform="translate(104.548 -4)"/>
            <line id="l-30" data-name="l" class="cls-5" y2="110" transform="translate(51.548 -4)"/>
            <line id="l-31" data-name="l" class="cls-5" x2="166" transform="translate(0.048 75.499)"/>
            <line id="l-32" data-name="l" class="cls-5" x2="166" transform="translate(0.048 51.5)"/>
            <line id="l-33" data-name="l" class="cls-5" x2="166" transform="translate(0.048 27.501)"/>
            <line id="l-34" data-name="l" class="cls-5" x2="166" transform="translate(0.048 99.5)"/>
            <line id="l-35" data-name="l" class="cls-5" y2="110" transform="translate(157.548 -4)"/>
            <line id="l-36" data-name="l" class="cls-5" x2="166" transform="translate(0.048 4.5)"/>
          </g>
          <g id="ticks-4" data-name="ticks">
            <rect id="tick-28" data-name="tick" class="cls-4" width="8" height="3" rx="1.5" transform="translate(-12.453 49.879)"/>
            <rect id="tick-29" data-name="tick" class="cls-4" width="8" height="3" rx="1.5" transform="translate(-12.453 26.453)"/>
            <rect id="tick-30" data-name="tick" class="cls-4" width="6" height="3" rx="1.5" transform="translate(49.047 109.379)"/>
            <rect id="tick-31" data-name="tick" class="cls-4" width="6" height="3" rx="1.5" transform="translate(101.773 109.379)"/>
            <rect id="tick-32" data-name="tick" class="cls-4" width="6" height="3" rx="1.5" transform="translate(-10 98.379)"/>
            <rect id="tick-33" data-name="tick" class="cls-4" width="8" height="3" rx="1.5" transform="translate(-12.453 74.879)"/>
            <rect id="tick-34" data-name="tick" class="cls-4" width="6" height="3" rx="1.5" transform="translate(154.5 109.379)"/>
            <rect id="tick-35" data-name="tick" class="cls-4" width="8" height="3" rx="1.5" transform="translate(-12.453 3.453)"/>
          </g>
          <g id="colors-3" data-name="colors">
            <rect id="color-8" data-name="color" class="cls-18" width="14" height="3" rx="1.5" transform="translate(-0.453 128.223)"/>
          </g>
          <g id="dots-5" data-name="dots">
            <circle id="dot-40" data-name="dot" class="cls-17" cx="2" cy="2" r="2" transform="translate(-2.453 98.453)"/>
            <circle id="dot-41" data-name="dot" class="cls-17" cx="2" cy="2" r="2" transform="translate(10.547 3.453)"/>
            <circle id="dot-42" data-name="dot" class="cls-17" cx="2" cy="2" r="2" transform="translate(28.547 49.453)"/>
            <circle id="dot-43" data-name="dot" class="cls-17" cx="2" cy="2" r="2" transform="translate(38.547 49.453)"/>
            <circle id="dot-44" data-name="dot" class="cls-17" cx="2" cy="2" r="2" transform="translate(49.547 49.453)"/>
            <circle id="dot-45" data-name="dot" class="cls-17" cx="2" cy="2" r="2" transform="translate(65.547 88.453)"/>
            <circle id="dot-46" data-name="dot" class="cls-17" cx="2" cy="2" r="2" transform="translate(154.547 97.453)"/>
            <circle id="dot-47" data-name="dot" class="cls-17" cx="2" cy="2" r="2" transform="translate(77.547 88.453)"/>
            <circle id="dot-48" data-name="dot" class="cls-17" cx="2" cy="2" r="2" transform="translate(88.547 88.453)"/>
            <circle id="dot-49" data-name="dot" class="cls-17" cx="2" cy="2" r="2" transform="translate(108.547 3.453)"/>
            <circle id="dot-50" data-name="dot" class="cls-17" cx="2" cy="2" r="2" transform="translate(120.547 3.453)"/>
            <circle id="dot-51" data-name="dot" class="cls-17" cx="2" cy="2" r="2" transform="translate(130.547 3.453)"/>
            <circle id="dot-52" data-name="dot" class="cls-17" cx="2" cy="2" r="2" transform="translate(136.547 26.453)"/>
            <circle id="dot-53" data-name="dot" class="cls-17" cx="2" cy="2" r="2" transform="translate(145.547 26.453)"/>
            <circle id="dot-54" data-name="dot" class="cls-17" cx="2" cy="2" r="2" transform="translate(154.547 26.453)"/>
            <circle id="dot-55" data-name="dot" class="cls-18" cx="2" cy="2" r="2" transform="translate(-0.453 -1.047)"/>
            <circle id="dot-56" data-name="dot" class="cls-18" cx="2" cy="2" r="2" transform="translate(9.547 -1.047)"/>
            <circle id="dot-57" data-name="dot" class="cls-18" cx="2" cy="2" r="2" transform="translate(19.547 -1.047)"/>
            <circle id="dot-58" data-name="dot" class="cls-18" cx="2" cy="2" r="2" transform="translate(29.547 -1.047)"/>
            <circle id="dot-59" data-name="dot" class="cls-18" cx="2" cy="2" r="2" transform="translate(49.547 -1.047)"/>
            <circle id="dot-60" data-name="dot" class="cls-18" cx="2" cy="2" r="2" transform="translate(69.547 -1.047)"/>
            <circle id="dot-61" data-name="dot" class="cls-18" cx="2" cy="2" r="2" transform="translate(89.547 -1.047)"/>
            <circle id="dot-62" data-name="dot" class="cls-18" cx="2" cy="2" r="2" transform="translate(99.547 -1.047)"/>
            <circle id="dot-63" data-name="dot" class="cls-18" cx="2" cy="2" r="2" transform="translate(109.547 -1.047)"/>
            <circle id="dot-64" data-name="dot" class="cls-18" cx="2" cy="2" r="2" transform="translate(119.547 -1.047)"/>
            <circle id="dot-65" data-name="dot" class="cls-18" cx="2" cy="2" r="2" transform="translate(139.547 -1.047)"/>
            <circle id="dot-66" data-name="dot" class="cls-18" cx="2" cy="2" r="2" transform="translate(155.547 -1.047)"/>
            <circle id="dot-67" data-name="dot" class="cls-17" cx="2" cy="2" r="2" transform="translate(-0.453 3.453)"/>
          </g>
          <path id="line-5" data-name="line" class="cls-19" d="M157.007,28.391H138.852L133.109,5.559H110.248L90.132,90.746H67.022L50.966,51.178H30.658L12.9,5.559H1"/>
          <line id="line-6" data-name="line" class="cls-20" x2="158" transform="translate(0.047 0.953)"/>
        </g>
        <text id="widget-title-5" data-name="widget-title" class="cls-2" transform="translate(16 31)"><tspan x="0" y="0">Metric</tspan></text>
      </g>
    </g>
  </g>
</svg>
