<svg xmlns="http://www.w3.org/2000/svg" width="220" height="137" viewBox="0 0 220 137">
  <g id="graph" transform="translate(0 -0.069)">
    <rect id="color" width="14" height="3" rx="1.5" transform="translate(12 134.069)" fill="#bfb1fc"/>
    <rect id="legend" width="61" height="3" rx="1.5" transform="translate(79 0.069)" fill="#a4adcd"/>
    <g id="x-y-lines" transform="translate(12 15.115)">
      <line id="l" y2="100" transform="translate(124.5)" fill="none" stroke="#384161" stroke-width="1"/>
      <line id="l-2" data-name="l" y2="100" transform="translate(86.5)" fill="none" stroke="#384161" stroke-width="1"/>
      <line id="l-3" data-name="l" y2="100" transform="translate(48.5)" fill="none" stroke="#384161" stroke-width="1"/>
      <line id="l-4" data-name="l" x2="208" transform="translate(0 29)" fill="none" stroke="#384161" stroke-width="1"/>
      <line id="l-5" data-name="l" y2="100" transform="translate(162.5)" fill="none" stroke="#384161" stroke-width="1"/>
      <line id="l-6" data-name="l" y2="99.8" transform="translate(200.5 0.115)" fill="none" stroke="#384161" stroke-width="1"/>
      <line id="l-7" data-name="l" y2="100" transform="translate(10.5 0.115)" fill="none" stroke="#384161" stroke-width="1"/>
      <line id="l-8" data-name="l" y2="100" transform="translate(200.5)" fill="none" stroke="#384161" stroke-width="1"/>
      <line id="l-9" data-name="l" x2="208" transform="translate(0 7)" fill="none" stroke="#384161" stroke-width="1"/>
      <line id="l-10" data-name="l" x2="208" transform="translate(0 51)" fill="none" stroke="#384161" stroke-width="1"/>
      <line id="l-11" data-name="l" x2="208" transform="translate(0 73)" fill="none" stroke="#384161" stroke-width="1"/>
      <line id="l-12" data-name="l" x2="208" transform="translate(0 95)" fill="none" stroke="#384161" stroke-width="1"/>
    </g>
    <g id="ticks" transform="translate(0 20.656)">
      <rect id="tick" width="8" height="3" rx="1.5" transform="translate(0 66)" fill="#a4adcd"/>
      <rect id="tick-2" data-name="tick" width="8" height="3" rx="1.5" transform="translate(0 44)" fill="#a4adcd"/>
      <rect id="tick-3" data-name="tick" width="8" height="3" rx="1.5" transform="translate(0 22)" fill="#a4adcd"/>
      <rect id="tick-4" data-name="tick" width="6" height="3" rx="1.5" transform="translate(19.453 98.5)" fill="#a4adcd"/>
      <rect id="tick-5" data-name="tick" width="6" height="3" rx="1.5" transform="translate(57.5 98.5)" fill="#a4adcd"/>
      <rect id="tick-6" data-name="tick" width="6" height="3" rx="1.5" transform="translate(95.547 98.5)" fill="#a4adcd"/>
      <rect id="tick-7" data-name="tick" width="8" height="3" rx="1.5" transform="translate(0 88)" fill="#a4adcd"/>
      <rect id="tick-8" data-name="tick" width="6" height="3" rx="1.5" transform="translate(133.547 98.5)" fill="#a4adcd"/>
      <rect id="tick-9" data-name="tick" width="6" height="3" rx="1.5" transform="translate(171.547 98.5)" fill="#a4adcd"/>
      <rect id="tick-10" data-name="tick" width="6" height="3" rx="1.5" transform="translate(209.547 98.5)" fill="#a4adcd"/>
      <rect id="tick-11" data-name="tick" width="8" height="3" rx="1.5" fill="#a4adcd"/>
    </g>
    <g id="dots" transform="translate(21.5 27.23)">
      <circle id="dot" cx="2" cy="2" r="2" transform="translate(113 72.885)" fill="#bfb1fc"/>
      <circle id="dot-2" data-name="dot" cx="2" cy="2" r="2" transform="translate(37 26.885)" fill="#bfb1fc"/>
      <circle id="dot-3" data-name="dot" cx="2" cy="2" r="2" transform="translate(123.5)" fill="#bfb1fc"/>
      <circle id="dot-4" data-name="dot" cx="2" cy="2" r="2" transform="translate(94 64.885)" fill="#bfb1fc"/>
      <circle id="dot-5" data-name="dot" cx="2" cy="2" r="2" transform="translate(65 66.885)" fill="#bfb1fc"/>
      <circle id="dot-6" data-name="dot" cx="2" cy="2" r="2" transform="translate(47 46.885)" fill="#bfb1fc"/>
      <circle id="dot-7" data-name="dot" cx="2" cy="2" r="2" transform="translate(41 74.885)" fill="#bfb1fc"/>
      <circle id="dot-8" data-name="dot" cx="2" cy="2" r="2" transform="translate(14 70.885)" fill="#bfb1fc"/>
      <circle id="dot-9" data-name="dot" cx="2" cy="2" r="2" transform="translate(0 74.885)" fill="#bfb1fc"/>
      <circle id="dot-10" data-name="dot" cx="2" cy="2" r="2" transform="translate(139 74.885)" fill="#bfb1fc"/>
      <circle id="dot-11" data-name="dot" cx="2" cy="2" r="2" transform="translate(163 74.885)" fill="#bfb1fc"/>
      <circle id="dot-12" data-name="dot" cx="2" cy="2" r="2" transform="translate(181 74.885)" fill="#bfb1fc"/>
      <circle id="dot-13" data-name="dot" cx="2" cy="2" r="2" transform="translate(74.5)" fill="#bfb1fc"/>
    </g>
  </g>
</svg>
