<svg xmlns="http://www.w3.org/2000/svg" width="206" height="123.5" viewBox="0 0 206 123.5">
  <g id="graph" transform="translate(0 1.344)">
    <g id="x-y-lines" transform="translate(12 15.115)">
      <line id="l" y2="114.674" transform="translate(92.678 -15)" fill="none" stroke="#384161" stroke-width="1"/>
      <line id="l-2" data-name="l" x2="194" transform="translate(0 29)" fill="none" stroke="#384161" stroke-width="1"/>
      <line id="l-3" data-name="l" y2="114.674" transform="translate(154.563 -14.674)" fill="none" stroke="#384161" stroke-width="1"/>
      <line id="l-4" data-name="l" y2="114.789" transform="translate(30.793 -14.674)" fill="none" stroke="#384161" stroke-width="1"/>
      <line id="l-5" data-name="l" x2="194" transform="translate(0 7)" fill="none" stroke="#384161" stroke-width="1"/>
      <line id="l-6" data-name="l" x2="194" transform="translate(0 51)" fill="none" stroke="#384161" stroke-width="1"/>
      <line id="l-7" data-name="l" x2="194" transform="translate(0 73)" fill="none" stroke="#384161" stroke-width="1"/>
      <line id="l-8" data-name="l" x2="194" transform="translate(0 95)" fill="none" stroke="#384161" stroke-width="1"/>
      <line id="l-9" data-name="l" x2="194" transform="translate(0 -15)" fill="none" stroke="#384161" stroke-width="1"/>
    </g>
    <g id="ticks" transform="translate(0 20.656)">
      <rect id="tick" width="8" height="3" rx="1.5" transform="translate(0 66)" fill="#a4adcd"/>
      <rect id="tick-2" data-name="tick" width="8" height="3" rx="1.5" transform="translate(0 44)" fill="#a4adcd"/>
      <rect id="tick-3" data-name="tick" width="8" height="3" rx="1.5" transform="translate(0 22)" fill="#a4adcd"/>
      <rect id="tick-4" data-name="tick" width="15" height="3" rx="1.5" transform="translate(35.453 98.5)" fill="#a4adcd"/>
      <rect id="tick-5" data-name="tick" width="8" height="3" rx="1.5" transform="translate(0 88)" fill="#a4adcd"/>
      <rect id="tick-6" data-name="tick" width="8" height="3" rx="1.5" fill="#a4adcd"/>
      <rect id="tick-7" data-name="tick" width="8" height="3" rx="1.5" transform="translate(0 -22)" fill="#a4adcd"/>
      <rect id="tick-8" data-name="tick" width="15" height="3" rx="1.5" transform="translate(97.453 98.5)" fill="#a4adcd"/>
      <rect id="tick-9" data-name="tick" width="15" height="3" rx="1.5" transform="translate(159.453 98.5)" fill="#a4adcd"/>
    </g>
    <g id="bars">
      <rect id="bar" width="14" height="21" transform="translate(12 88.941)" fill="#7bae80"/>
      <rect id="bar-2" data-name="bar" width="14" height="31" transform="translate(30 78.941)" fill="#7bae80"/>
      <rect id="bar-3" data-name="bar" width="14" height="43" transform="translate(48 66.941)" fill="#7bae80"/>
      <rect id="bar-4" data-name="bar" width="14" height="55" transform="translate(66 54.941)" fill="#7bae80"/>
      <rect id="bar-5" data-name="bar" width="14" height="64" transform="translate(84 45.941)" fill="#7bae80"/>
      <rect id="bar-6" data-name="bar" width="14" height="73" transform="translate(102 36.941)" fill="#7bae80"/>
      <rect id="bar-7" data-name="bar" width="14" height="78" transform="translate(120 31.941)" fill="#7bae80"/>
      <rect id="bar-8" data-name="bar" width="14" height="82" transform="translate(138 27.941)" fill="#7bae80"/>
      <rect id="bar-9" data-name="bar" width="14" height="86" transform="translate(156 23.941)" fill="#7bae80"/>
      <rect id="bar-10" data-name="bar" width="14" height="90" transform="translate(174 19.941)" fill="#7bae80"/>
      <rect id="bar-11" data-name="bar" width="14" height="100" transform="translate(192 9.941)" fill="#7bae80"/>
    </g>
  </g>
</svg>
