<svg xmlns="http://www.w3.org/2000/svg" width="161.002" height="161">
  <g transform="translate(-221.499 -59.502)">
    <circle data-name="pie" cx="80" cy="80" r="80" transform="translate(222 60)" fill="#384161"/>
    <g data-name="slices" stroke="#0d0e15" stroke-linejoin="bevel">
      <path d="M302 140V60a80 80 0 0163.127 129.143z" fill="#029bff"/>
      <path data-name="slice" d="M302 140l63.113 49.17a80.341 80.341 0 01-23.986 20.627z" fill="#ff021f"/>
      <path data-name="slice" d="M302 140l38.936 69.9A79.643 79.643 0 01302 220z" fill="#59658e"/>
      <path data-name="slice" d="M270.566 213.586L302 140v80a79.744 79.744 0 01-31.434-6.414z" fill="#cbfd00"/>
      <path data-name="slice" d="M229.044 172.871L301.999 140l-31.443 73.584a80.322 80.322 0 01-41.512-40.713z" fill="#7380aa"/>
      <path data-name="slice" d="M221.998 140.002a80 80 0 0180-80v80l-72.9 32.994a79.671 79.671 0 01-7.1-32.994z" fill="#4b8fe2"/>
    </g>
    <path d="M313.555 206.955l-3.82-21.666a1.5 1.5 0 112.953-.523l3.816 21.666a1.492 1.492 0 01-1.217 1.738 1.46 1.46 0 01-.26.023 1.5 1.5 0 01-1.472-1.238zm-28.631-1.416a1.508 1.508 0 01-.994-1.877l6.432-21.037a1.5 1.5 0 012.869.877l-6.432 21.037a1.5 1.5 0 01-1.437 1.064 1.551 1.551 0 01-.438-.064zm8.223-6.379a1.5 1.5 0 01-.994-1.871l1.465-4.783a1.5 1.5 0 012.869.879l-1.465 4.781a1.5 1.5 0 01-1.875.994zm24.842-1.623l-.871-4.92a1.5 1.5 0 112.953-.523l.867 4.926a1.5 1.5 0 01-1.217 1.738 1.438 1.438 0 01-.258.023 1.5 1.5 0 01-1.475-1.244zm24.479-2.875l-13.244-17.57a1.502 1.502 0 112.4-1.807l13.236 17.57a1.5 1.5 0 11-2.393 1.807zm-89.324-7.8a1.51 1.51 0 01.148-2.119l16.6-14.432a1.502 1.502 0 111.971 2.266l-16.6 14.434a1.5 1.5 0 01-2.119-.148zm10.352-1.047a1.506 1.506 0 01.148-2.119l3.773-3.281a1.502 1.502 0 011.971 2.268l-3.777 3.275a1.5 1.5 0 01-2.115-.143zm78.645-1.553l-3.008-4a1.5 1.5 0 012.395-1.807l3.012 3.994a1.506 1.506 0 01-.295 2.1 1.49 1.49 0 01-.9.3 1.508 1.508 0 01-1.206-.585zM340 132.426a1.5 1.5 0 010-3h5a1.5 1.5 0 010 3zm-8.5-6a1.5 1.5 0 110-3h22a1.5 1.5 0 110 3zm-69.5-10.5a1.5 1.5 0 110-3h5a1.5 1.5 0 010 3zm-5.5-6a1.5 1.5 0 010-3h16a1.5 1.5 0 110 3z" fill="#a4adcd"/>
  </g>
</svg>